<?xml version="1.0" encoding="utf-8"?>
<!-- Generator: Adobe Illustrator 23.0.0, SVG Export Plug-In . SVG Version: 6.00 Build 0)  -->
<svg version="1.1" xmlns="http://www.w3.org/2000/svg" xmlns:xlink="http://www.w3.org/1999/xlink" x="0px" y="0px"
	 viewBox="0 0 576.3 452.4" style="enable-background:new 0 0 576.3 452.4;" xml:space="preserve">
<style type="text/css">
	.st0{fill:none;}
	.st1{fill:#0D2A41;}
</style>
<g id="triangle">
	<rect x="360.3" y="221.7" class="st0" width="3.1" height="3.3"/>
	<rect x="287.4" y="387" class="st0" width="0.9" height="2.9"/>
	<rect x="270.1" y="301.8" class="st0" width="0.2" height="4.2"/>
	<rect x="509.8" y="378" class="st0" width="3.6" height="5.5"/>
	<rect x="477.3" y="293.1" class="st0" width="4.2" height="3.9"/>
	<g>
		<polygon class="st1" points="446.7,168.1 417.9,168.1 407,186.3 435.8,186.3 		"/>
		<polygon class="st1" points="158.8,168.1 130,168.1 140.9,186.3 169.7,186.3 		"/>
		<polygon class="st1" points="131.3,122.3 115.5,96 461.1,96 445.3,122.3 474.1,122.3 504.3,72 72.3,72 102.5,122.3 		"/>
		<polygon class="st1" points="354.6,273.5 288.3,384 222.1,273.5 193.3,273.5 288.3,432 383.4,273.5 		"/>
	</g>
</g>
<g id="lETTRE">
	<g>
		<path class="st1" d="M116.7,136.3H90.1v21.3c0,1.1-0.4,2.1-1.2,2.8c-0.8,0.7-1.7,1.3-2.7,1.7c-1,0.4-2.1,0.7-3.2,0.8
			c-1.1,0.2-1.9,0.2-2.5,0.2c-0.9-0.1-1.9-0.2-3-0.4c-1.1-0.2-2.2-0.4-3.2-0.8c-1-0.4-1.8-0.9-2.5-1.6c-0.7-0.7-1-1.6-1-2.7v-44.5
			h8.4v41.6c0,0.2,0.1,0.3,0.4,0.4c0.3,0.1,0.6,0.2,0.9,0.2c0.3,0,0.5-0.1,0.8-0.2c0.3-0.1,0.4-0.2,0.5-0.4v-23.1
			c0.2-0.5,0.7-1.2,1.4-2s1.5-1.3,2.4-1.4h35.7c0.8,0.2,1.6,0.6,2.4,1.4c0.8,0.8,1.2,1.5,1.4,2v27.9c-0.2,0.5-0.7,1.2-1.4,2
			c-0.8,0.8-1.5,1.3-2.4,1.4H93v-8h23.7V136.3z"/>
		<path class="st1" d="M139.3,155h41.1v8h-45.6c-0.8-0.2-1.6-0.6-2.4-1.4c-0.8-0.8-1.2-1.5-1.4-2v-27.9c0.2-0.5,0.7-1.2,1.4-2
			s1.5-1.3,2.4-1.4h45.6v8h-41.1V155z M147.8,145.1c0-1.2,0.5-2.3,1.4-3.2c0.9-0.9,2.1-1.3,3.4-1.3c1.3,0,2.5,0.4,3.4,1.3
			c1,0.9,1.4,1.9,1.4,3.2c0,1.2-0.5,2.3-1.4,3.1c-1,0.9-2.1,1.3-3.4,1.3c-1.3,0-2.4-0.4-3.4-1.3
			C148.3,147.4,147.8,146.3,147.8,145.1z"/>
		<path class="st1" d="M237.5,129.7c0.8,0.8,1.2,1.5,1.4,2v4.6h-33.3v21.3c0,1.1-0.4,2.1-1.2,2.8c-0.8,0.7-1.7,1.3-2.7,1.7
			c-1,0.4-2.1,0.7-3.2,0.8c-1.1,0.2-1.9,0.2-2.5,0.2c-0.9-0.1-1.9-0.2-3-0.4c-1.1-0.2-2.2-0.4-3.2-0.8c-1-0.4-1.8-0.9-2.5-1.6
			c-0.7-0.7-1-1.6-1-2.7v-29.4h8.4v26.5c0,0.2,0.1,0.3,0.4,0.4c0.3,0.1,0.6,0.2,0.9,0.2c0.3,0,0.5-0.1,0.8-0.2s0.4-0.2,0.5-0.4
			v-23.1c0.2-0.5,0.7-1.2,1.4-2s1.5-1.3,2.4-1.4h34.1C235.9,128.4,236.7,128.9,237.5,129.7z"/>
		<path class="st1" d="M260.7,121.5v41.6h-8.4v-26.8h-7.5v-8h7.5v-9.7c0-1.1,0.3-2,1-2.7c0.7-0.7,1.5-1.2,2.5-1.6
			c1-0.4,2-0.7,3.2-0.8c1.1-0.2,2.1-0.3,3-0.4c0.6,0,1.4,0.1,2.5,0.2c1.1,0.2,2.1,0.4,3.2,0.8c1,0.4,2,1,2.7,1.7
			c0.8,0.7,1.2,1.6,1.2,2.8v9.7h7.7v8h-7.7v26.8h-8.4v-41.7c-0.1-0.2-0.2-0.3-0.5-0.4c-0.3-0.1-0.5-0.2-0.8-0.2
			c-0.3,0-0.6,0.1-0.9,0.2C260.9,121.2,260.7,121.3,260.7,121.5z"/>
		<path class="st1" d="M336.4,129.7c0.8,0.8,1.2,1.5,1.4,2v4.6h-33.3v21.3c0,1.1-0.4,2.1-1.2,2.8c-0.8,0.7-1.7,1.3-2.7,1.7
			c-1,0.4-2.1,0.7-3.2,0.8c-1.1,0.2-1.9,0.2-2.5,0.2c-0.9-0.1-1.9-0.2-3-0.4c-1.1-0.2-2.2-0.4-3.2-0.8c-1-0.4-1.8-0.9-2.5-1.6
			c-0.7-0.7-1-1.6-1-2.7v-29.4h8.4v26.5c0,0.2,0.1,0.3,0.4,0.4c0.3,0.1,0.6,0.2,0.9,0.2c0.3,0,0.5-0.1,0.8-0.2
			c0.3-0.1,0.4-0.2,0.5-0.4v-23.1c0.2-0.5,0.7-1.2,1.4-2c0.8-0.8,1.5-1.3,2.4-1.4H334C334.8,128.4,335.6,128.9,336.4,129.7z"/>
		<path class="st1" d="M365.3,128.2l16.9,18.3c0.9,0.9,1.4,1.9,1.7,3c0.3,1.1,0.5,2.1,0.5,3.1c0,1.6-0.3,3-1,4.4
			c-0.7,1.4-1.4,2.4-2.2,3l-0.8,0.7c-1,0.9-2,1.5-2.9,1.9c-0.9,0.4-2.3,0.6-4,0.6h-0.5c-0.4,0-1-0.1-1.7-0.3
			c-0.7-0.2-1.5-0.6-2.3-1.1l-17.1-17.4l-13.5,18.7h-10.7l23.1-32.2l23.8,24.1c0.1,0.1,0.1,0.1,0.2,0.1c0.3,0,0.7-0.2,1.1-0.7
			c0.4-0.3,0.6-0.7,0.6-1l-0.1-0.2L354,128.2H365.3z M347.9,156.9c0-1.2,0.5-2.3,1.4-3.2c0.9-0.9,2.1-1.3,3.4-1.3
			c1.3,0,2.5,0.4,3.4,1.3c1,0.9,1.4,1.9,1.4,3.2c0,1.2-0.5,2.3-1.4,3.1c-1,0.9-2.1,1.3-3.4,1.3c-1.3,0-2.4-0.4-3.4-1.3
			C348.4,159.2,347.9,158.2,347.9,156.9z"/>
		<path class="st1" d="M393.6,128.2h35.7c0.8,0.2,1.6,0.6,2.4,1.4c0.8,0.8,1.2,1.5,1.4,2v23.1c0.1,0.2,0.2,0.3,0.5,0.4
			s0.5,0.2,0.8,0.2c0.3,0,0.6-0.1,0.9-0.2c0.3-0.1,0.4-0.3,0.4-0.4v-26.5h8.4v29.4c0,1.1-0.3,2-1,2.7c-0.7,0.7-1.5,1.2-2.5,1.6
			c-1,0.4-2,0.7-3.2,0.8c-1.1,0.2-2.1,0.3-3,0.4c-0.6,0-1.4-0.1-2.5-0.2c-1.1-0.2-2.1-0.4-3.2-0.8c-1-0.4-2-1-2.7-1.7
			c-0.8-0.7-1.2-1.6-1.2-2.8v-21.3h-26.5v26.8h-8.4v-31.4c0.2-0.5,0.7-1.2,1.4-2S392.8,128.4,393.6,128.2z"/>
		<path class="st1" d="M458.3,155H482v8h-28.2c-0.8-0.2-1.6-0.6-2.4-1.4c-0.8-0.8-1.2-1.5-1.4-2v-27.9c0.2-0.5,0.7-1.2,1.4-2
			c0.8-0.8,1.5-1.3,2.4-1.4h35.7c0.8,0.2,1.6,0.6,2.4,1.4c0.8,0.8,1.2,1.5,1.4,2v23.1c0.1,0.2,0.2,0.3,0.5,0.4
			c0.3,0.1,0.5,0.2,0.8,0.2c0.3,0,0.6-0.1,0.9-0.2c0.3-0.1,0.4-0.3,0.4-0.4v-41.6h8.4v44.5c0,1.1-0.3,2-1,2.7
			c-0.7,0.7-1.5,1.2-2.5,1.6c-1,0.4-2,0.7-3.2,0.8c-1.1,0.2-2.1,0.3-3,0.4c-0.6,0-1.4-0.1-2.5-0.2c-1.1-0.2-2.1-0.4-3.2-0.8
			c-1-0.4-2-1-2.7-1.7c-0.8-0.7-1.2-1.6-1.2-2.8v-21.3h-26.5V155z"/>
	</g>
	<g>
		<path class="st1" d="M128,267.1H86.9c-8.9,0-16-3.4-21.4-10.1c-5.3-6.8-8-15.8-8-27.1c0-11.4,2.7-20.4,8-27.1
			c5.3-6.7,12.4-10.1,21.4-10.1H128v18.6H86.9c-1.6,0-3,1.1-4.2,3.3c-1.1,2-1.7,4-1.7,6v18.6c0,2,0.6,4,1.7,6
			c1.2,2.2,2.6,3.3,4.2,3.3H128V267.1z"/>
		<path class="st1" d="M222.6,229.9c0,11.4-2.7,20.4-8,27.1c-5.3,6.7-12.4,10.1-21.4,10.1h-28.6c-8.9,0-16-3.4-21.4-10.1
			c-5.3-6.8-8-15.8-8-27.1c0-11.4,2.7-20.4,8-27.1c5.3-6.7,12.4-10.1,21.4-10.1h28.6c9,0,16.1,3.4,21.4,10.1
			C220,209.5,222.6,218.5,222.6,229.9z M199.2,239.2v-18.6c0-2-0.6-4-1.7-6c-1.2-2.2-2.6-3.3-4.2-3.3h-28.6c-1.6,0-3,1.1-4.2,3.3
			c-1.1,2-1.7,4-1.7,6v18.6c0,2,0.6,4,1.7,6c1.2,2.2,2.6,3.3,4.2,3.3h28.6c1.6,0,3-1.1,4.2-3.3C198.6,243.3,199.2,241.3,199.2,239.2
			z"/>
		<path class="st1" d="M306.3,229.9c0,11.3-2.7,20.4-8,27.1c-5.3,6.8-12.4,10.1-21.4,10.1H230v-46.5h23.5v27.9h23.5
			c1.6,0,3-1.1,4.2-3.3c1.1-2,1.7-4,1.7-6v-18.6c0-2-0.6-4-1.7-6c-1.2-2.2-2.6-3.3-4.2-3.3H230v-18.6h46.9c9,0,16.1,3.4,21.4,10.1
			C303.6,209.5,306.3,218.5,306.3,229.9z"/>
		<path class="st1" d="M337.1,267.1h-23.5v-74.3l23.5-0.1V267.1z"/>
		<path class="st1" d="M426.6,248.5c0,5.6-1.3,10.1-4,13.5c-2.7,3.4-6.2,5.1-10.7,5.1c-3.2,0-6.2-1.2-8.8-3.7l-35.2-33.5v37.2h-23.5
			v-55.8c0-5.6,1.3-10.1,4-13.5c2.7-3.4,6.2-5.1,10.7-5.1c3.2,0,6.2,1.2,8.8,3.7l35.2,33.6v-37.3h23.5V248.5z"/>
		<path class="st1" d="M510.2,267.1h-46.9c-8.9,0-16-3.4-21.4-10.1c-5.3-6.8-8-15.8-8-27.1c0-11.4,2.7-20.4,8-27.1
			c5.3-6.7,12.4-10.1,21.4-10.1h46.9v18.6h-46.9c-1.6,0-3,1.1-4.2,3.3c-1.1,2-1.7,4-1.7,6v18.6c0,2,0.6,4,1.7,6
			c1.2,2.2,2.6,3.3,4.2,3.3h23.5v-23.3h23.5V267.1z"/>
	</g>
</g>
<g id="Calque_3">
</g>
</svg>
